<svg width="21" height="20" viewBox="0 0 21 20" fill="none" xmlns="http://www.w3.org/2000/svg">
<path d="M14.7608 12.6005L20.4445 18.2842L18.7286 20L13.045 14.3164V13.4048L12.7233 13.0831C11.3292 14.2627 9.7206 14.8525 7.89754 14.8525C5.82426 14.8525 4.05482 14.1376 2.58923 12.7078C1.15938 11.2422 0.444458 9.49062 0.444458 7.45308C0.444458 5.3798 1.15938 3.62824 2.58923 2.19839C4.05482 0.732797 5.80639 0 7.84392 0C9.9172 0 11.6688 0.732797 13.0986 2.19839C14.5642 3.62824 15.297 5.3798 15.297 7.45308C15.297 9.27614 14.7072 10.8847 13.5276 12.2788L13.8493 12.6005H14.7608ZM4.25143 11.0992C5.25232 12.1001 6.46769 12.6005 7.89754 12.6005C9.32739 12.6005 10.5428 12.1001 11.5437 11.0992C12.5445 10.0983 13.045 8.88293 13.045 7.45308C13.045 6.02323 12.5445 4.80786 11.5437 3.80697C10.5428 2.80608 9.32739 2.30563 7.89754 2.30563C6.46769 2.30563 5.25232 2.80608 4.25143 3.80697C3.25053 4.80786 2.75009 6.02323 2.75009 7.45308C2.75009 8.88293 3.25053 10.0983 4.25143 11.0992Z" fill="#99B2BF"/>
</svg>
